<svg xmlns="http://www.w3.org/2000/svg" version="1.1" xmlns:xlink="http://www.w3.org/1999/xlink" xmlns:svgjs="http://svgjs.dev/svgjs" width="1500" height="1500" viewBox="0 0 1500 1500"><rect width="1500" height="1500" fill="#162836"></rect><g transform="matrix(0.6666666666666666,0,0,0.6666666666666666,250,437.6666666666667)"><svg viewBox="0 0 512 320" data-background-color="#162836" preserveAspectRatio="xMidYMid meet" height="937" width="1500" xmlns="http://www.w3.org/2000/svg" xmlns:xlink="http://www.w3.org/1999/xlink"><g id="tight-bounds" transform="matrix(1,0,0,1,0,0)"><svg viewBox="0 0 512 320" height="320" width="512"><g><svg></svg></g><g><svg viewBox="0 0 512 320" height="320" width="512"><g><path d="M96 160c0-88.366 71.634-160 160-160 88.366 0 160 71.634 160 160 0 88.366-71.634 160-160 160-88.366 0-160-71.634-160-160zM256 317.861c87.184 0 157.861-70.677 157.861-157.861 0-87.184-70.677-157.861-157.861-157.861-87.184 0-157.861 70.677-157.861 157.861 0 87.184 70.677 157.861 157.861 157.861z" fill="#cf7650" fill-rule="nonzero" stroke="none" stroke-width="1" stroke-linecap="butt" stroke-linejoin="miter" stroke-miterlimit="10" stroke-dasharray="" stroke-dashoffset="0" font-family="none" font-weight="none" font-size="none" text-anchor="none" style="mix-blend-mode: normal" data-fill-palette-color="tertiary"></path></g><g transform="matrix(1,0,0,1,116,20)"><svg viewBox="0 0 280 280" height="280" width="280"><g><svg viewBox="0 0 280 280" height="280" width="280"><g><svg viewBox="0 0 280 280" height="280" width="280"><g id="textblocktransform"><svg viewBox="0 0 280 280" height="280" width="280" id="textblock"><g><svg viewBox="0 0 280 280" height="280" width="280"><g transform="matrix(1,0,0,1,57.50420886156945,57.50420886156945)"><svg viewBox="0 0 164.9915822768611 164.9915822768611" height="164.9915822768611" width="164.9915822768611"><g><circle r="82" cx="82.49579113843055" cy="82.49579113843055" fill="#d5a187" data-fill-palette-color="accent"></circle><svg xmlns="http://www.w3.org/2000/svg" xmlns:xlink="http://www.w3.org/1999/xlink" version="1.1" x="24.748737341529164" y="24.74873734152917" viewBox="8.353 5.249 83.29399999999998 89.501" enable-background="new 0 0 100 100" xml:space="preserve" height="115.49410759380275" width="115.49410759380275" class="icon-xg-0" data-fill-palette-color="quaternary" id="xg-0"><path d="M90.75 56.589l-10.629-32.47 5.211-5.637V9.004l-9.478-3.755-7.927 6.348-18.063 2.951-17.716-2.921-8.163-6.377-9.478 3.04v10.193l5.172 5.859L9.236 56.603 8.353 59.33l2.182 1.86 36.598 31.194 2.779 2.366 2.782-2.361 36.754-31.193 2.199-1.866L90.75 56.589zM49.917 86.078L13.319 57.924l13.303-41.092 23.242-0.405 23.353 0.401L86.67 57.924 49.917 86.078z" fill="#162836" data-fill-palette-color="quaternary"></path><polygon points="40.67,39.494 38.345,43.606 32.4,44.429 29.359,41.058 28.957,36.677 " fill="#162836" data-fill-palette-color="quaternary"></polygon><polygon points="58.771,39.494 61.096,43.606 67.15,44.429 70.082,41.058 70.484,36.677 " fill="#162836" data-fill-palette-color="quaternary"></polygon><g fill="#162836" data-fill-palette-color="quaternary"><polygon points="49.92,77.195 37.239,69.227 39.521,57.949 40.67,39.494 40.67,39.494 40.938,58.108 38.826,68.592 49.925,74.611    61.148,68.595 58.883,58.243 58.771,39.494 58.771,39.494 60.297,58.059 62.753,69.227  " fill="#162836" data-fill-palette-color="quaternary"></polygon></g><polygon points="53.471,61.875 55.664,67.748 49.922,70.923 44.171,67.748 46.364,61.875 " fill="#162836" data-fill-palette-color="quaternary"></polygon></svg></g></svg></g><g><path d="M29.077 111.189l-26.272-9.534 1.321-3.641 11.259 4.086 5.2-14.328-11.26-4.086 1.318-3.631 26.273 9.534-1.318 3.632-11.832-4.294-5.2 14.328 11.832 4.293z" fill="#cf7650" data-fill-palette-color="primary"></path><path d="M131.417 27.949l0.132-27.949 3.873 0.018-0.073 15.402 14.866-15.332 4.801 0.022-10.683 11.11 10.921 16.841-4.602-0.022-9.017-14.057-6.306 5.84-0.039 8.145z" fill="#cf7650" data-fill-palette-color="primary"></path><path d="M246.279 100.888l22.966-8.72-3.412-8.986 3.163-1.201 8.199 21.593-3.163 1.201-3.412-8.986-22.966 8.72z" fill="#cf7650" data-fill-palette-color="primary"></path><path d="M8.932 182.64l26.273-9.534 1.321 3.64-11.26 4.087 5.2 14.328 11.26-4.087 1.318 3.632-26.273 9.534-1.318-3.631 11.832-4.294-5.199-14.328-11.832 4.294z" fill="#cf7650" data-fill-palette-color="primary"></path><path d="M131.518 280l-0.131-27.949 3.873-0.018 0.072 15.402 14.721-15.472 4.801-0.022-10.578 11.209 11.079 16.738-4.602 0.022-9.149-13.972-6.251 5.899 0.038 8.145z" fill="#cf7650" data-fill-palette-color="primary"></path><path d="M266.314 193.238l-22.965-8.72-3.412 8.986-3.164-1.201 8.199-21.594 3.164 1.202-3.413 8.986 22.966 8.72z" fill="#cf7650" data-fill-palette-color="primary"></path><path d="M10.591 143.259c0-1.769 1.434-3.203 3.203-3.203 1.769 0 3.203 1.434 3.203 3.203 0 1.769-1.434 3.203-3.203 3.203-1.769 0-3.203-1.434-3.203-3.203z" fill="#cf7650" data-fill-palette-color="primary"></path><path d="M262.138 143.259c0-1.769 1.434-3.203 3.203-3.203 1.769 0 3.203 1.434 3.203 3.203 0 1.769-1.434 3.203-3.203 3.203-1.769 0-3.203-1.434-3.203-3.203z" fill="#cf7650" data-fill-palette-color="primary"></path></g></svg></g></svg></g></svg></g></svg></g></svg></g></svg></g><defs></defs></svg><rect width="512" height="320" fill="none" stroke="none" visibility="hidden"></rect></g></svg></g></svg>